<?xml version="1.0" standalone="no"?>
<!DOCTYPE svg PUBLIC "-//W3C//DTD SVG 20010904//EN"
 "http://www.w3.org/TR/2001/REC-SVG-20010904/DTD/svg10.dtd">
<svg version="1.0" xmlns="http://www.w3.org/2000/svg"
 width="512.000000pt" height="512.000000pt" viewBox="0 0 512.000000 512.000000"
 preserveAspectRatio="xMidYMid meet">

<g transform="translate(0.000000,512.000000) scale(0.100000,-0.100000)"
fill="#000000" stroke="none">
<path d="M653 5100 c-203 -53 -354 -202 -420 -415 -17 -57 -18 -139 -18 -1805
0 -1666 1 -1748 18 -1805 45 -146 134 -264 257 -344 79 -51 171 -80 278 -88
l82 -6 0 1534 c0 997 4 1564 10 1619 30 240 126 439 294 605 133 132 276 214
464 268 77 22 82 22 1135 25 661 1 1057 6 1057 12 0 23 -37 101 -78 163 -77
119 -195 201 -340 238 -72 18 -122 19 -1371 18 -1234 0 -1299 -1 -1368 -19z"/>
<path d="M1795 4263 c-103 -14 -220 -66 -307 -137 -69 -56 -150 -174 -180
-264 l-23 -67 -3 -1630 c-3 -1815 -7 -1703 66 -1847 48 -98 152 -202 250 -250
143 -72 67 -69 1527 -66 l1310 3 75 27 c185 68 316 209 377 404 17 56 18 136
18 1699 l0 1640 -22 70 c-58 185 -205 333 -393 398 l-65 22 -1300 1 c-715 1
-1313 -1 -1330 -3z m2171 -869 c50 -24 77 -68 82 -133 4 -66 -20 -111 -78
-145 -34 -21 -48 -21 -858 -24 -543 -2 -836 1 -862 8 -51 14 -106 75 -115 129
-9 53 25 126 74 158 l34 23 844 0 c759 0 848 -2 879 -16z m11 -860 c98 -73 98
-195 0 -268 -28 -21 -34 -21 -874 -24 l-845 -2 -39 22 c-110 61 -112 214 -3
275 l39 23 847 -3 c841 -2 847 -2 875 -23z m-11 -740 c50 -24 77 -68 82 -133
4 -66 -20 -111 -78 -145 -34 -21 -48 -21 -858 -24 -543 -2 -836 1 -862 8 -51
14 -106 75 -115 129 -9 53 25 126 74 158 l34 23 844 0 c759 0 848 -2 879 -16z
m11 -860 c98 -73 98 -195 0 -268 -28 -21 -34 -21 -874 -24 l-845 -2 -39 22
c-110 61 -112 214 -3 275 l39 23 847 -3 c841 -2 847 -2 875 -23z"/>
</g>
</svg>
