<?xml version="1.0" standalone="no"?>
<!DOCTYPE svg PUBLIC "-//W3C//DTD SVG 20010904//EN"
 "http://www.w3.org/TR/2001/REC-SVG-20010904/DTD/svg10.dtd">
<svg version="1.0" xmlns="http://www.w3.org/2000/svg"
 width="512.000000pt" height="512.000000pt" viewBox="0 0 512.000000 512.000000"
 preserveAspectRatio="xMidYMid meet">

<g transform="translate(0.000000,512.000000) scale(0.100000,-0.100000)"
fill="#ffff" stroke="none">
<path d="M390 2560 l0 -2562 49 29 c347 202 4281 2529 4281 2533 0 4 -3934
2331 -4281 2533 l-49 29 0 -2562z m2056 1060 c978 -578 1779 -1055 1779 -1060
0 -8 -3533 -2102 -3571 -2117 -12 -4 -14 331 -14 2117 0 1786 2 2121 14 2117
7 -3 814 -478 1792 -1057z"/>
</g>
</svg>
