<?xml version="1.0" standalone="no"?>
<!DOCTYPE svg PUBLIC "-//W3C//DTD SVG 20010904//EN"
 "http://www.w3.org/TR/2001/REC-SVG-20010904/DTD/svg10.dtd">
<svg version="1.0" xmlns="http://www.w3.org/2000/svg"
 width="512.000000pt" height="512.000000pt" viewBox="0 0 512.000000 512.000000"
 preserveAspectRatio="xMidYMid meet">

<g transform="translate(0.000000,512.000000) scale(0.100000,-0.100000)"
fill="#000000" stroke="none">
<path d="M890 5104 c-105 -28 -180 -96 -232 -209 l-23 -50 -3 -2255 c-3 -2327
-3 -2318 36 -2395 33 -65 93 -124 160 -157 l67 -33 1634 -3 c1815 -3 1705 -6
1808 64 55 38 89 81 125 159 l23 50 0 1913 0 1912 -510 510 -510 510 -1260 -1
c-1072 0 -1268 -2 -1315 -15z m2412 -526 c3 -318 5 -336 26 -390 41 -102 119
-179 220 -220 54 -21 73 -22 390 -26 l332 -4 0 -1809 0 -1810 -39 -42 -40 -42
-1628 0 c-1612 0 -1628 0 -1655 20 -63 47 -58 -135 -58 2315 0 2503 -7 2280
74 2320 40 20 58 20 1208 20 l1167 0 3 -332z m577 -416 c-256 -3 -279 2 -322
62 -21 30 -22 41 -25 276 l-3 245 291 -290 290 -290 -231 -3z"/>
<path d="M2146 3584 c-287 -62 -507 -266 -591 -549 -36 -119 -38 -289 -7 -406
59 -219 214 -409 417 -512 109 -55 189 -71 340 -71 131 0 146 2 230 31 l90 31
265 -263 c300 -298 323 -315 440 -315 153 1 263 112 263 265 0 111 -14 132
-312 429 l-268 268 30 86 c24 72 30 108 34 207 7 174 -24 299 -108 442 -48 81
-180 212 -264 261 -170 100 -375 135 -559 96z m236 -214 c222 -32 403 -197
457 -415 18 -71 16 -214 -4 -282 -94 -324 -462 -477 -771 -322 -170 85 -272
244 -294 458 -17 162 18 270 124 388 127 140 297 200 488 173z m998 -1579 c0
-23 -31 -51 -55 -51 -16 0 -91 70 -263 248 l-241 248 32 32 32 32 247 -247
c137 -136 248 -254 248 -262z"/>
</g>
</svg>
