<?xml version="1.0" standalone="no"?>
<!DOCTYPE svg PUBLIC "-//W3C//DTD SVG 20010904//EN"
 "http://www.w3.org/TR/2001/REC-SVG-20010904/DTD/svg10.dtd">
<svg version="1.0" xmlns="http://www.w3.org/2000/svg"
 width="512.000000pt" height="512.000000pt" viewBox="0 0 512.000000 512.000000"
 preserveAspectRatio="xMidYMid meet">

<g transform="translate(0.000000,512.000000) scale(0.100000,-0.100000)"
fill="#ffff" stroke="none">
<path d="M1342 5109 c-172 -29 -319 -107 -452 -239 -105 -105 -162 -194 -204
-320 -43 -129 -46 -178 -46 -730 l0 -524 -308 -311 c-325 -327 -332 -335 -332
-425 0 -90 7 -98 332 -425 l308 -311 0 -524 c0 -552 3 -601 46 -730 42 -126
99 -215 204 -320 136 -136 279 -210 460 -239 93 -15 592 -14 644 1 55 16 138
99 154 154 26 87 9 162 -52 231 -67 76 -72 77 -406 83 l-295 5 -61 28 c-77 36
-145 104 -181 182 l-28 60 -5 615 c-4 476 -8 622 -18 645 -7 17 -129 146 -270
288 l-256 257 256 258 c141 141 263 271 270 287 10 23 14 169 18 645 l5 615
28 61 c36 77 104 145 182 181 l60 28 295 5 c334 6 339 7 406 83 61 69 78 144
52 231 -16 55 -99 138 -154 154 -49 14 -567 15 -652 1z"/>
<path d="M3120 5107 c-49 -16 -133 -102 -148 -153 -25 -86 -9 -162 49 -228 70
-79 75 -80 409 -86 l295 -5 60 -28 c78 -36 146 -104 182 -181 l28 -61 5 -615
c4 -476 8 -622 18 -645 7 -16 129 -146 270 -287 l256 -258 -256 -257 c-141
-142 -263 -271 -270 -288 -10 -23 -14 -169 -18 -645 l-5 -615 -28 -60 c-36
-78 -104 -146 -181 -182 l-61 -28 -295 -5 c-334 -6 -339 -7 -409 -86 -58 -66
-74 -142 -49 -228 16 -55 99 -138 154 -154 52 -15 551 -16 644 -1 182 29 325
104 460 239 105 106 162 195 204 320 43 129 46 178 46 730 l0 524 308 311
c325 327 332 335 332 425 0 90 -7 98 -332 425 l-308 311 0 524 c0 552 -3 601
-46 730 -42 125 -99 214 -204 320 -135 135 -278 210 -460 239 -86 14 -604 12
-650 -2z"/>
</g>
</svg>
