<?xml version="1.0" standalone="no"?>
<!DOCTYPE svg PUBLIC "-//W3C//DTD SVG 20010904//EN"
 "http://www.w3.org/TR/2001/REC-SVG-20010904/DTD/svg10.dtd">
<svg version="1.0" xmlns="http://www.w3.org/2000/svg"
 width="256.000000pt" height="256.000000pt" viewBox="0 0 256.000000 256.000000"
 preserveAspectRatio="xMidYMid meet">

<g transform="translate(0.000000,256.000000) scale(0.100000,-0.100000)"
fill="#ffff" stroke="none">
<path d="M1848 2498 c-26 -29 -175 -215 -331 -413 l-283 -360 -174 -5 c-157
-5 -183 -9 -255 -34 -122 -42 -252 -122 -324 -200 l-25 -26 188 -190 188 -189
-78 -103 c-43 -57 -226 -296 -407 -532 -180 -236 -327 -430 -325 -431 2 -1
237 178 523 397 286 220 526 402 533 405 9 4 84 -64 201 -181 102 -102 189
-186 193 -186 12 0 127 151 162 212 19 35 47 99 62 143 26 75 28 91 29 255 l1
175 305 233 c167 128 352 271 412 317 l107 85 0 57 0 58 -285 282 c-283 281
-285 283 -327 283 -38 0 -47 -5 -90 -52z"/>
</g>
</svg>
