<?xml version="1.0" standalone="no"?>
<!DOCTYPE svg PUBLIC "-//W3C//DTD SVG 20010904//EN"
 "http://www.w3.org/TR/2001/REC-SVG-20010904/DTD/svg10.dtd">
<svg version="1.0" xmlns="http://www.w3.org/2000/svg"
 width="512.000000pt" height="512.000000pt" viewBox="0 0 512.000000 512.000000"
 preserveAspectRatio="xMidYMid meet">

<g transform="translate(0.000000,512.000000) scale(0.100000,-0.100000)"
fill="#000000" stroke="none">
<path d="M102 5099 c-26 -13 -55 -39 -70 -62 l-27 -41 0 -2436 0 -2436 27 -41
c16 -24 44 -49 70 -62 l44 -21 2414 0 2414 0 44 21 c26 13 54 38 70 62 l27 41
0 2436 0 2436 -27 41 c-16 24 -44 49 -70 62 l-44 21 -2415 0 -2414 0 -43 -21z
m1358 -2539 l0 -2190 -545 0 -545 0 0 2190 0 2190 545 0 545 0 0 -2190z m3290
0 l0 -2190 -1460 0 -1460 0 0 2190 0 2190 1460 0 1460 0 0 -2190z"/>
</g>
</svg>
